<svg width="128.000000" height="36.000000" viewBox="0 0 128 36" fill="none"
    xmlns="http://www.w3.org/2000/svg" xmlns:xlink="http://www.w3.org/1999/xlink">
    <desc>
        Created with Pixso.
    </desc>
    <defs />
    <path id="Combined-Shape"
        d="M52.99 0.02C53.05 0.08 53.06 0.16 53.03 0.28C53 0.54 52.94 0.96 52.85 1.51C56.56 1.45 59.43 1.59 61.46 1.91C61.67 1.94 61.71 2.06 61.59 2.26C61.27 2.82 60.68 3.08 59.83 3.05C57.68 2.96 55.3 3.01 52.68 3.18C52.24 8.17 52.02 13.82 52.02 20.12C52.02 25.46 52.21 29.7 52.59 32.84C55.86 32.75 56.22 32.84 58.16 33.16C58.4 33.19 58.45 33.31 58.34 33.51C58.01 34.07 57.44 34.35 56.62 34.35C53.97 34.32 53.38 34.47 50.38 34.78C48.27 35 46.29 35.28 44.2 35.95C44.02 36.01 43.9 36.01 43.84 35.95C43.82 35.89 43.82 35.77 43.84 35.6C44.14 34.43 44.7 33.72 45.52 33.49C47.35 32.96 48.64 32.96 50.96 32.88C50.69 32.56 50.53 32.18 50.47 31.74C50.24 29.66 50.12 26.77 50.12 23.07C50.12 14.98 50.49 8.39 51.22 3.32C48.28 3.55 45.6 3.99 43.19 4.64C42.98 4.7 42.85 4.7 42.79 4.64C42.7 4.58 42.69 4.46 42.75 4.29C43.04 3.17 43.59 2.51 44.38 2.31C45.85 1.92 48.24 1.66 51.53 1.51C51.77 0.75 52.18 0.25 52.77 0.02C52.88 -0.01 52.96 -0.01 52.99 0.02ZM11.47 0.81C13.97 0.78 15.82 1.97 17.03 4.37C17.94 6.16 18.34 8.11 18.22 10.23C18.08 12.75 17.28 14.21 15.84 14.62C15.66 14.68 15.55 14.7 15.49 14.67C15.43 14.61 15.43 14.48 15.49 14.27C15.78 13.11 15.93 11.83 15.93 10.46C15.93 8.18 15.55 6.24 14.78 4.63C13.96 2.87 12.88 2.03 11.56 2.08C9.68 2.14 7.73 3.78 5.73 7.01C3.53 10.64 2.38 14.78 2.29 19.44C2.23 23.22 2.91 26.27 4.32 28.6C5.73 30.93 7.65 32.06 10.06 32C12 31.97 13.7 31.13 15.16 29.48C16.61 27.82 18.38 25.25 18.42 21.88C18.53 16.15 18.98 11.58 19.76 8.16C19.96 7.25 20.36 6.69 20.95 6.48C21.13 6.43 21.23 6.43 21.26 6.48C21.26 6.51 21.24 6.6 21.22 6.75C20.48 10.86 20.11 16.52 20.11 23.73L20.11 27.38C20.73 24.36 21.61 21.84 22.74 19.82C23.01 19.32 23.32 19.07 23.67 19.07C23.91 19.07 24.18 19.19 24.47 19.42C25.07 19.89 25.36 20.71 25.36 21.89C25.3 27.08 25.7 29.8 26.56 30.07C26.91 30.19 27.29 29.87 27.7 29.12C27.91 28.74 28.09 28.31 28.22 27.84C28.18 27.46 28.15 27.06 28.14 26.64C28.11 24.55 28.35 22.74 28.85 21.18C29.06 20.54 29.44 20.15 30 20.04C30.12 20.04 30.22 20.1 30.31 20.21C29.92 22.03 29.73 23.86 29.73 25.71C29.73 28.88 30.09 30.58 30.79 30.82C31.2 30.96 31.7 30.6 32.27 29.72C32.84 28.84 33.25 27.72 33.48 26.37C33.49 26.34 33.5 26.3 33.51 26.27C33.29 24.91 33.17 23.3 33.17 21.44C33.17 18.83 33.42 15.93 33.93 12.73C34.66 8.3 35.63 6.09 36.84 6.09C37.22 6.09 37.59 6.32 37.94 6.79C38.74 7.79 39.13 9.45 39.13 11.76C39.13 14.05 38.77 16.38 38.03 18.76C37.24 21.22 36.25 22.98 35.07 24.04C35.31 28.5 36.06 30.73 37.32 30.73C37.88 30.73 38.47 30.31 39.09 29.48C39.63 28.75 40.06 27.85 40.4 26.79C40.12 25.32 39.97 23.54 39.97 21.44C39.97 18.83 40.22 15.93 40.72 12.73C41.46 8.3 42.43 6.09 43.63 6.09C44.02 6.09 44.39 6.32 44.74 6.79C45.53 7.79 45.93 9.45 45.93 11.76C45.93 14.05 45.56 16.38 44.83 18.76C44.03 21.22 43.05 22.98 41.87 24.04C42.11 28.5 42.85 30.73 44.12 30.73C44.68 30.73 45.27 30.31 45.89 29.48C46.5 28.64 46.99 27.59 47.34 26.33C47.43 26.06 47.52 26.04 47.61 26.24C47.75 26.5 47.78 27.03 47.69 27.82C47.61 28.82 47.31 29.72 46.81 30.51C46.22 31.51 45.46 32 44.52 32C44.25 32 43.99 31.96 43.72 31.87C42.4 31.5 41.44 30.35 40.81 28.43C40.67 29.19 40.41 29.88 40.02 30.51C39.43 31.51 38.66 32 37.72 32C37.46 32 37.19 31.96 36.93 31.87C35.56 31.49 34.56 30.26 33.94 28.21C33.87 29.16 33.62 29.98 33.22 30.66C32.69 31.56 32.03 32 31.23 32C31.03 32 30.81 31.96 30.57 31.87C29.73 31.57 29.11 30.92 28.7 29.92C28.37 30.78 27.81 31.21 27 31.21C26.79 31.21 26.58 31.17 26.38 31.08C24.91 30.58 24.04 29.45 23.78 27.69C23.6 26.49 23.51 24.35 23.51 21.27C23.45 20.86 23.35 20.81 23.2 21.14C21.67 24.39 20.78 27.96 20.51 31.83C20.48 32.15 20.34 32.27 20.08 32.18C19.16 31.86 18.65 31.11 18.57 29.94C18.5 29.16 18.46 28.31 18.43 27.38C17.89 28.78 17.1 30.01 16.24 30.9C14.83 32.37 13.04 33.16 10.9 33.28C8.07 33.43 5.62 32.42 3.53 30.24C1.2 27.81 0.02 24.45 0 20.17C-0.03 14.92 1.23 10.33 3.79 6.4C6.14 2.73 8.7 0.87 11.47 0.81ZM96.09 9.83C96.2 9.8 96.28 9.8 96.31 9.83C96.34 9.86 96.34 9.95 96.31 10.09C96.1 11.15 95.88 12.64 95.65 14.58C98.32 14.52 100.69 14.66 102.75 14.99C102.9 15.02 102.93 15.11 102.84 15.26C102.55 15.69 102.12 15.89 101.56 15.86C99.53 15.77 97.51 15.77 95.51 15.86C95.25 18.39 95.09 20.8 95.03 23.1C94.91 28.1 95.4 30.6 96.49 30.6C96.93 30.6 97.4 30.24 97.9 29.54C98.32 28.95 98.64 28.17 98.88 27.2C98.92 26.92 98.95 26.63 99 26.33C99.32 24.22 99.51 22.76 99.57 21.97C98.66 21.5 98.24 20.67 98.29 19.46C98.32 18.64 98.5 17.98 98.82 17.49C99.09 17.07 99.38 16.87 99.71 16.87C100.41 16.87 100.77 18.23 100.77 20.96C102.21 21.05 103.5 20.32 104.65 18.76C104.83 18.5 105.05 18.5 105.31 18.76C105.75 19.23 105.97 19.68 105.97 20.12C105.97 20.33 105.93 20.55 105.84 20.79C104.78 23.1 104.25 25.55 104.25 28.13C104.25 30.07 104.65 31.04 105.44 31.04C106.46 31.04 107.34 29.83 108.09 27.42C108.07 27.16 108.05 26.91 108.05 26.64C108.02 24.55 108.25 22.74 108.75 21.18C108.96 20.54 109.34 20.15 109.9 20.04C110.02 20.04 110.12 20.1 110.21 20.21C109.83 22.03 109.64 23.87 109.64 25.71C109.64 28.88 109.99 30.58 110.7 30.82C111.11 30.96 111.6 30.6 112.17 29.72C112.52 29.18 112.8 28.55 113.02 27.85C112.89 27.29 112.81 26.7 112.81 26.07C112.81 25.51 112.87 24.94 112.99 24.35C113.31 22.53 113.86 21.09 114.62 20.04C115.33 19.1 116.09 18.63 116.92 18.63C117.3 18.63 117.67 18.75 118.02 18.98C119.02 19.68 119.52 20.7 119.52 22.02C119.52 22.49 119.46 22.97 119.35 23.47C119.05 24.7 118.46 25.68 117.56 26.42C116.66 27.15 115.71 27.55 114.71 27.6C114.89 29.28 115.34 30.24 116.08 30.51C116.29 30.6 116.52 30.64 116.79 30.64C117.64 30.64 118.5 30.25 119.37 29.48C119.99 28.92 120.5 28.22 120.89 27.4C120.85 27.26 120.81 27.1 120.76 26.9C120.52 25.96 120.6 25.29 120.98 24.88C121.16 24.7 121.3 25.01 121.42 25.8C122.18 21.84 123.24 19.23 124.6 17.97C124.86 17.7 125.14 17.57 125.44 17.57C125.79 17.57 126.13 17.75 126.45 18.1C126.63 18.31 126.6 18.5 126.36 18.67C125.95 19.02 125.75 19.6 125.75 20.39C125.75 21.62 126.2 23.26 127.11 25.32C127.7 26.7 128 27.85 128 28.79C128 29.76 127.69 30.53 127.07 31.1C126.45 31.67 125.76 31.96 124.99 31.96C123.49 31.96 122.29 30.95 121.38 28.92C121.32 29.07 121.2 29.23 121.02 29.41C121 29.43 120.98 29.44 120.96 29.45C120.72 29.89 120.43 30.28 120.07 30.62C119.29 31.37 118.38 31.74 117.32 31.74C116.79 31.74 116.26 31.64 115.73 31.43C114.99 31.14 114.36 30.57 113.83 29.72C113.76 29.62 113.7 29.51 113.64 29.41C113.52 29.86 113.35 30.29 113.12 30.66C112.59 31.56 111.93 32 111.14 32C110.93 32 110.71 31.96 110.48 31.87C109.5 31.52 108.82 30.71 108.43 29.43C107.94 31.38 107.06 32.36 105.8 32.36C104.65 32.36 103.78 31.73 103.19 30.47C102.72 29.5 102.49 28.4 102.49 27.16C102.49 25.52 102.83 23.72 103.5 21.75C102.8 22.08 101.99 22.24 101.07 22.24L100.72 22.24C100.69 22.8 100.59 24.14 100.41 26.26C100.26 28.03 100.19 29.41 100.19 30.41C100.19 31.18 100.24 31.85 100.32 32.44C100.35 32.59 100.32 32.68 100.24 32.71C100.18 32.77 100.07 32.77 99.93 32.71C99.18 32.47 98.76 31.81 98.67 30.75C98.19 31.44 97.58 31.78 96.84 31.78C96.63 31.78 96.41 31.76 96.18 31.7C94.97 31.4 94.15 30.55 93.7 29.14C93.35 27.94 93.22 26.01 93.31 23.34C93.37 20.9 93.62 18.41 94.06 15.86C92.97 15.94 91.88 16.09 90.79 16.3C90.64 16.33 90.56 16.3 90.53 16.21C90.47 16.15 90.47 16.08 90.53 15.99C90.64 15.31 91.09 14.93 91.85 14.84C92.38 14.79 93.17 14.73 94.23 14.67C94.59 12.94 94.88 11.68 95.12 10.88C95.26 10.36 95.59 10 96.09 9.83ZM74.05 6C74.17 5.97 74.24 5.97 74.27 6C74.33 6.03 74.35 6.1 74.32 6.22C73.29 11.53 72.8 17.24 72.86 23.34C72.89 25.1 72.95 26.46 73.04 27.43C73.22 29.48 73.55 30.61 74.05 30.82C74.41 30.96 74.82 30.61 75.29 29.76C75.53 29.33 75.73 28.82 75.9 28.25C75.82 27.59 75.77 26.87 75.77 26.07C75.77 24.01 76.04 22 76.57 20.04C76.8 19.16 77.22 18.67 77.8 18.58C77.95 18.56 78.05 18.56 78.11 18.58C78.14 18.61 78.14 18.7 78.11 18.85C77.73 20.81 77.54 22.97 77.54 25.32C77.54 27.22 77.7 28.62 78.03 29.5C78.29 30.23 78.69 30.6 79.22 30.6C80.04 30.6 80.61 29.12 80.94 26.15L81.56 20.65C81.7 19.8 82.16 19.29 82.92 19.11C83.07 19.08 83.17 19.1 83.23 19.16C83.26 19.19 83.26 19.27 83.23 19.42C82.91 21.8 82.75 23.95 82.75 25.89C82.75 28.91 83.16 30.42 83.98 30.42C84.31 30.42 84.65 30.03 85.02 29.25C85.27 28.72 85.47 28.11 85.62 27.42C85.58 27.28 85.54 27.11 85.48 26.9C85.25 25.96 85.32 25.29 85.7 24.88C85.88 24.7 86.03 25.01 86.15 25.8C86.91 21.84 87.97 19.23 89.32 17.97C89.59 17.7 89.87 17.57 90.16 17.57C90.52 17.57 90.85 17.75 91.18 18.1C91.35 18.31 91.32 18.5 91.09 18.67C90.68 19.02 90.47 19.6 90.47 20.39C90.47 21.62 90.93 23.26 91.84 25.32C92.43 26.7 92.72 27.85 92.72 28.79C92.72 29.76 92.41 30.53 91.8 31.1C91.18 31.67 90.49 31.96 89.72 31.96C88.3 31.96 87.14 31.05 86.24 29.22C85.97 30.84 85.27 31.65 84.12 31.65C82.91 31.65 82.04 30.82 81.51 29.14C81.13 30.41 80.53 31.27 79.7 31.74C79.35 31.95 78.97 32.05 78.56 32.05C77.91 32.05 77.38 31.8 76.97 31.3C76.77 31.05 76.6 30.76 76.45 30.42C76.04 31.51 75.42 32.05 74.58 32.05C74.38 32.05 74.17 32.02 73.97 31.96C72.55 31.49 71.66 30.17 71.27 28C70.86 30.61 69.82 31.92 68.14 31.92C66.93 31.92 66.01 31.39 65.36 30.33C65.3 30.23 65.25 30.14 65.2 30.04C65.16 30.13 65.12 30.21 65.07 30.29C64.68 30.99 64.14 31.34 63.46 31.34C61.73 31.34 60.68 30.19 60.33 27.87C60.15 26.67 60.06 24.52 60.06 21.44C60 21.03 59.9 20.99 59.75 21.31C58.28 24.54 57.37 28 57.02 31.7C56.99 32.02 56.86 32.15 56.62 32.09C55.71 31.92 55.22 31.45 55.16 30.68C55.02 29.19 54.99 27.3 55.08 25.01C55.16 22.54 55.34 20.62 55.61 19.25C55.75 18.51 56.14 18.06 56.75 17.88C56.9 17.85 57 17.85 57.06 17.88C57.12 17.91 57.14 18 57.11 18.14C56.69 20.93 56.56 24.1 56.71 27.65C57.39 24.42 58.25 21.87 59.31 19.99C59.61 19.46 59.92 19.2 60.24 19.2C60.74 19.2 61.17 19.5 61.52 20.08C61.78 20.52 61.92 21.18 61.92 22.06C61.86 27.25 62.26 29.97 63.11 30.2C63.52 30.32 63.93 29.97 64.34 29.17C64.46 28.93 64.56 28.68 64.65 28.43C64.56 27.98 64.52 27.49 64.52 26.97C64.52 26.18 64.61 25.33 64.79 24.41C65.17 22.47 65.77 20.96 66.6 19.87C67.42 18.78 68.26 18.23 69.11 18.23C69.9 18.23 70.6 18.73 71.18 19.73C71.54 14.45 72.17 10.15 73.08 6.84C73.2 6.43 73.52 6.15 74.05 6ZM69.63 19.51C69.12 19.39 68.54 19.95 67.87 21.18C67.2 22.41 66.74 23.87 66.51 25.54C66.42 26.18 66.37 26.78 66.37 27.34C66.37 28.46 66.53 29.33 66.84 29.96C67.15 30.59 67.5 30.92 67.89 30.95C68.54 31.01 69.21 30.27 69.9 28.75C70.64 27.05 70.98 25.11 70.92 22.94C70.89 21.94 70.73 21.11 70.43 20.43C70.19 19.88 69.92 19.57 69.63 19.51ZM124.29 20.61C123.64 21.64 122.89 23.92 122.04 27.47C122.51 28.47 123.11 29.26 123.85 29.85C124.49 30.38 125.1 30.64 125.66 30.64C126.27 30.64 126.58 30.3 126.58 29.63C126.58 29.04 126.19 27.82 125.39 25.98C124.6 24.13 124.2 22.66 124.2 21.58C124.2 21.22 124.23 20.9 124.29 20.61ZM89.01 20.61C88.37 21.64 87.62 23.92 86.76 27.47C87.23 28.47 87.84 29.26 88.57 29.85C89.22 30.38 89.82 30.64 90.38 30.64C91 30.64 91.31 30.3 91.31 29.63C91.31 29.04 90.91 27.82 90.12 25.98C89.32 24.13 88.93 22.66 88.93 21.58C88.93 21.22 88.96 20.9 89.01 20.61ZM117.49 19.82C117.02 19.7 116.49 20.18 115.9 21.27C115.26 22.44 114.86 23.81 114.71 25.36C114.65 26.04 114.64 26.53 114.67 26.86C115.73 26.62 116.58 25.87 117.23 24.61C117.76 23.59 118.02 22.49 118.02 21.31C118.02 20.4 117.85 19.9 117.49 19.82ZM37.15 7.89C36.82 7.72 36.44 8.76 36 11.02C35.56 13.28 35.26 15.74 35.12 18.41C35.06 19.58 35.03 21.05 35.03 22.81C36.74 20.11 37.59 16.22 37.59 11.15C37.59 9.12 37.44 8.04 37.15 7.89ZM43.94 7.89C43.62 7.72 43.24 8.76 42.8 11.02C42.36 13.28 42.06 15.74 41.91 18.41C41.85 19.58 41.83 21.05 41.83 22.81C43.53 20.11 44.39 16.22 44.39 11.15C44.39 9.12 44.24 8.04 43.94 7.89ZM30.13 16.91C30.69 16.82 31.01 17.13 31.1 17.84C31.16 18.25 31.07 18.6 30.84 18.89C30.6 19.19 30.32 19.36 30 19.42C29.67 19.48 29.41 19.41 29.2 19.22C29 19.03 28.92 18.75 28.98 18.36C29.1 17.49 29.48 17 30.13 16.91ZM110.86 16.91C111.42 16.82 111.74 17.13 111.83 17.84C111.89 18.25 111.8 18.6 111.57 18.89C111.33 19.19 111.05 19.36 110.73 19.42C110.4 19.48 110.14 19.41 109.93 19.22C109.73 19.03 109.65 18.75 109.71 18.36C109.83 17.49 110.21 17 110.86 16.91Z"
        fill="#FFFFFF" fill-opacity="1.000000" fill-rule="evenodd" />
</svg>