<svg width="24.000000" height="24.000000" viewBox="0 0 24 24" fill="none" xmlns="http://www.w3.org/2000/svg" xmlns:xlink="http://www.w3.org/1999/xlink">
	<desc>
			Created with Pixso.
	</desc>
	<defs/>
	<path id="Shape" d="M12 5.76C8.56 5.76 5.76 8.56 5.76 12C5.76 15.43 8.56 18.22 12 18.22C15.43 18.22 18.22 15.43 18.22 12C18.23 8.56 15.43 5.76 12 5.76ZM12 15.85C9.87 15.85 8.14 14.12 8.14 12C8.14 9.87 9.87 8.14 12 8.14C14.12 8.14 15.85 9.87 15.85 12C15.85 14.12 14.12 15.85 12 15.85ZM17.09 0L6.9 0C3.09 0 0 3.09 0 6.9L0 17.09C0 20.9 3.09 24 6.9 24L17.09 24C20.9 24 24 20.9 24 17.09L24 6.9C24 3.09 20.9 0 17.09 0ZM21.62 17.09C21.62 19.59 19.59 21.62 17.09 21.62L6.9 21.62C4.4 21.62 2.37 19.59 2.37 17.09L2.37 6.9C2.37 4.4 4.4 2.37 6.9 2.37L17.09 2.37C19.59 2.37 21.62 4.4 21.62 6.9L21.62 17.09L21.62 17.09ZM18.31 3.96C17.41 3.96 16.68 4.69 16.68 5.59C16.68 6.49 17.41 7.22 18.31 7.22C19.21 7.22 19.94 6.49 19.94 5.59C19.94 4.69 19.21 3.96 18.31 3.96Z" fill="#1B1A1A" fill-opacity="1.000000" fill-rule="nonzero"/>
</svg>
