<svg width="117.000000" height="102.000000" viewBox="0 0 117 102" fill="none" xmlns="http://www.w3.org/2000/svg" xmlns:xlink="http://www.w3.org/1999/xlink">
	<desc>
			Created with Pixso.
	</desc>
	<defs/>
	<path id="Sketching-Icon" d="M58.5 0C90.8 0 117 22.83 117 51C117 79.16 90.8 102 58.5 102C26.19 102 0 79.16 0 51C0 22.83 26.19 0 58.5 0ZM60.1 41.67L49.84 42.66C47.56 51.27 45.85 56.4 41.29 61.03L43.54 62.99C48.91 57.76 50.51 51.76 52.44 45.23L58.91 44.61L65.84 50.64L65.12 56.28C57.63 57.96 50.74 59.36 44.74 64.03L46.99 66C52.31 62.02 58.2 60.53 68.08 58.55L69.22 49.61L60.1 41.67ZM57.82 51.6C57.01 50.87 55.81 50.57 54.68 50.83C53.55 51.09 52.67 51.85 52.38 52.84C52.08 53.82 52.42 54.86 53.26 55.57C54.53 56.62 56.52 56.59 57.76 55.52C59 54.44 59.02 52.7 57.82 51.6ZM64.09 37.2C63.87 37.01 63.55 36.95 63.26 37.03C62.97 37.12 62.76 37.33 62.72 37.6L62.38 39.68L71.49 47.62L73.87 47.3C74.17 47.26 74.42 47.08 74.51 46.83C74.61 46.57 74.53 46.3 74.32 46.11L64.09 37.2Z" fill="#403E3B" fill-opacity="1.000000" fill-rule="evenodd"/>
</svg>
