<svg width="128.000000" height="78.000000" viewBox="0 0 128 78" fill="none" xmlns="http://www.w3.org/2000/svg" xmlns:xlink="http://www.w3.org/1999/xlink">
	<desc>
			Created with Pixso.
	</desc>
	<defs/>
	<path id="Combined-Shape" d="M36.64 63.44C37.09 63.44 37.52 63.5 37.92 63.62C38.33 63.74 38.73 63.91 39.11 64.13L39.11 66.84C38.83 66.59 38.51 66.38 38.18 66.21C37.84 66.03 37.48 65.95 37.09 65.95C36.65 65.95 36.31 66.07 36.06 66.31C35.81 66.55 35.68 66.9 35.68 67.33C35.68 67.72 35.79 68.05 36 68.33C36.22 68.61 36.48 68.88 36.79 69.14C37.1 69.39 37.44 69.65 37.81 69.9C38.18 70.16 38.52 70.45 38.83 70.79C39.14 71.13 39.41 71.52 39.62 71.97C39.83 72.42 39.94 72.96 39.94 73.6C39.94 74.22 39.85 74.8 39.67 75.34C39.5 75.88 39.24 76.34 38.89 76.73C38.54 77.12 38.11 77.43 37.6 77.66C37.1 77.88 36.52 78 35.87 78C35.47 78 35.05 77.94 34.62 77.82C34.18 77.7 33.8 77.52 33.47 77.28L33.47 74.63C33.8 74.85 34.13 75.03 34.47 75.17C34.8 75.31 35.18 75.37 35.59 75.37C36.04 75.37 36.42 75.24 36.73 74.96C37.05 74.69 37.2 74.31 37.2 73.84C37.2 73.57 37.15 73.33 37.05 73.14C36.95 72.95 36.82 72.77 36.67 72.62C36.51 72.46 36.34 72.32 36.14 72.18C35.95 72.06 35.75 71.92 35.55 71.78C35.15 71.51 34.79 71.24 34.47 70.96C34.14 70.69 33.87 70.38 33.64 70.05C33.42 69.72 33.24 69.36 33.13 68.96C33.01 68.56 32.95 68.1 32.95 67.59C32.95 67.03 33.03 66.5 33.19 66C33.35 65.5 33.59 65.06 33.9 64.68C34.2 64.3 34.58 64 35.05 63.78C35.51 63.55 36.04 63.44 36.64 63.44ZM100.98 63.44C101.43 63.44 101.86 63.5 102.26 63.62C102.67 63.74 103.06 63.91 103.45 64.13L103.45 66.84C103.16 66.59 102.85 66.38 102.51 66.21C102.18 66.03 101.81 65.95 101.43 65.95C100.99 65.95 100.65 66.07 100.4 66.31C100.15 66.55 100.02 66.9 100.02 67.33C100.02 67.72 100.13 68.05 100.34 68.33C100.55 68.61 100.82 68.88 101.13 69.14C101.44 69.39 101.78 69.65 102.15 69.9C102.52 70.16 102.86 70.45 103.17 70.79C103.48 71.13 103.74 71.52 103.96 71.97C104.17 72.42 104.28 72.96 104.28 73.6C104.28 74.22 104.19 74.8 104.01 75.34C103.84 75.88 103.58 76.34 103.23 76.73C102.88 77.12 102.45 77.43 101.94 77.66C101.44 77.88 100.86 78 100.21 78C99.81 78 99.39 77.94 98.95 77.82C98.52 77.7 98.14 77.52 97.81 77.28L97.81 74.63C98.14 74.85 98.47 75.03 98.81 75.17C99.14 75.31 99.52 75.37 99.93 75.37C100.38 75.37 100.76 75.24 101.07 74.96C101.38 74.69 101.54 74.31 101.54 73.84C101.54 73.57 101.49 73.33 101.39 73.14C101.29 72.95 101.16 72.77 101.01 72.62C100.85 72.46 100.68 72.32 100.48 72.18C100.29 72.06 100.09 71.92 99.89 71.78C99.49 71.51 99.13 71.24 98.81 70.96C98.48 70.69 98.21 70.38 97.98 70.05C97.75 69.72 97.58 69.36 97.47 68.96C97.35 68.56 97.29 68.1 97.29 67.59C97.29 67.03 97.37 66.5 97.53 66C97.69 65.5 97.93 65.06 98.23 64.68C98.54 64.3 98.92 64 99.39 63.78C99.85 63.55 100.38 63.44 100.98 63.44ZM49.08 63.44C50.16 63.44 51.04 63.75 51.74 64.37C52.44 64.98 52.94 65.79 53.24 66.79L50.52 67.84C50.48 67.66 50.44 67.47 50.39 67.26C50.34 67.04 50.26 66.85 50.16 66.67C50.05 66.49 49.91 66.33 49.75 66.21C49.58 66.08 49.36 66.02 49.1 66.02C48.79 66.01 48.52 66.08 48.29 66.25C48.07 66.41 47.88 66.63 47.72 66.9C47.57 67.18 47.44 67.49 47.35 67.84C47.25 68.19 47.18 68.53 47.13 68.88C47.08 69.23 47.05 69.57 47.04 69.89C47.03 70.22 47.02 70.49 47.02 70.72C47.02 71.08 47.03 71.53 47.07 72.07C47.1 72.6 47.18 73.12 47.32 73.62C47.46 74.12 47.67 74.54 47.97 74.89C48.26 75.24 48.66 75.41 49.17 75.41C49.52 75.41 49.81 75.31 50.03 75.1C50.24 74.9 50.41 74.65 50.53 74.35C50.65 74.05 50.73 73.73 50.77 73.4C50.8 73.07 50.82 72.78 50.82 72.53L49.04 72.53L49.04 69.91L53.61 69.91L53.61 71.02C53.61 71.77 53.56 72.55 53.44 73.37C53.32 74.2 53.1 74.95 52.77 75.63C52.45 76.31 51.99 76.87 51.39 77.32C50.8 77.77 50.03 77.99 49.08 77.99C48.44 77.99 47.88 77.89 47.39 77.68C46.89 77.47 46.46 77.18 46.08 76.82C45.71 76.45 45.39 76.04 45.14 75.56C44.88 75.09 44.67 74.59 44.51 74.05C44.35 73.51 44.23 72.97 44.15 72.41C44.08 71.85 44.04 71.31 44.04 70.79C44.04 69.98 44.11 69.14 44.27 68.28C44.41 67.41 44.68 66.62 45.06 65.9C45.44 65.18 45.96 64.59 46.61 64.13C47.26 63.67 48.08 63.44 49.08 63.44ZM114.51 63.66L114.51 66.28L111.68 66.28L111.68 69.35L114.17 69.35L114.17 71.97L111.68 71.97L111.68 75.15L114.54 75.15L114.54 77.77L108.88 77.77L108.88 63.66L114.51 63.66ZM2.8 63.67C3.25 63.67 3.76 63.7 4.33 63.76C4.9 63.82 5.44 63.98 5.95 64.24C6.46 64.51 6.89 64.91 7.24 65.45C7.59 65.99 7.77 66.74 7.77 67.7C7.77 68.49 7.61 69.2 7.29 69.83C6.97 70.46 6.46 70.97 5.76 71.35L8.22 77.77L5.28 77.77L2.82 71.26L2.78 71.26L2.78 77.77L0 77.77L0 63.67L2.8 63.67ZM23.49 63.66L23.49 69.97L23.52 69.97L25.85 63.66L28.7 63.66L26.09 70.17L29.03 77.77L26.09 77.77L23.52 70.59L23.49 70.59L23.49 77.77L20.7 77.77L20.7 63.66L23.49 63.66ZM60.9 63.67C61.35 63.67 61.86 63.7 62.43 63.76C63 63.82 63.54 63.98 64.05 64.24C64.56 64.51 64.99 64.91 65.34 65.45C65.69 65.99 65.87 66.74 65.87 67.7C65.87 68.49 65.71 69.2 65.39 69.83C65.07 70.46 64.56 70.97 63.86 71.35L66.32 77.77L63.38 77.77L60.92 71.26L60.88 71.26L60.88 77.77L58.09 77.77L58.09 63.67L60.9 63.67ZM76.4 63.67L79.79 77.77L76.81 77.77L76.28 75.39L73.46 75.39L72.95 77.77L70.18 77.77L73.46 63.67L76.4 63.67ZM121.91 63.66L125.39 72.18L125.43 72.14C125.34 71.8 125.28 71.45 125.25 71.09C125.22 70.73 125.2 70.37 125.2 70.01L125.2 63.66L128 63.66L128 77.77L125.35 77.77L121.91 69.26L121.87 69.3L122 70.72L122.02 71.3L122.02 77.77L119.23 77.77L119.23 63.66L121.91 63.66ZM15.71 63.66L15.71 77.77L12.92 77.77L12.92 63.66L15.71 63.66ZM86.59 63.66L90.08 72.18L90.11 72.14C90.02 71.8 89.96 71.45 89.93 71.09C89.9 70.73 89.89 70.37 89.89 70.01L89.89 63.66L92.68 63.66L92.68 77.77L90.04 77.77L86.59 69.26L86.55 69.3L86.68 70.72L86.7 71.3L86.7 77.77L83.91 77.77L83.91 63.66L86.59 63.66ZM74.84 67.29L74.81 67.29L74.5 69.43L73.91 73.19L75.87 73.19L75.16 69.43L74.84 67.29ZM3.36 65.96L3.16 65.97L2.78 65.97L2.78 69.73L3.27 69.74C3.91 69.74 4.36 69.55 4.64 69.17C4.91 68.79 5.05 68.31 5.05 67.72C5.05 67.47 5.02 67.24 4.96 67.01C4.9 66.79 4.79 66.6 4.64 66.43C4.49 66.27 4.29 66.15 4.05 66.07C3.81 65.99 3.51 65.95 3.16 65.97L3.36 65.96ZM61.46 65.96L61.26 65.97L60.88 65.97L60.88 69.73L61.37 69.74C62.01 69.74 62.46 69.55 62.74 69.17C63.01 68.79 63.15 68.31 63.15 67.72C63.15 67.47 63.12 67.24 63.06 67.01C62.99 66.79 62.89 66.6 62.74 66.43C62.59 66.27 62.39 66.15 62.15 66.07C61.91 65.99 61.61 65.95 61.26 65.97L61.46 65.96ZM73.06 59.83C73.45 59.83 73.77 59.97 74.04 60.25C74.3 60.53 74.43 60.86 74.43 61.25C74.43 61.63 74.29 61.94 74.02 62.21C73.74 62.48 73.41 62.62 73.02 62.62C72.65 62.62 72.33 62.48 72.05 62.21C71.78 61.94 71.64 61.63 71.64 61.25C71.64 60.85 71.78 60.51 72.05 60.24C72.33 59.97 72.66 59.83 73.06 59.83ZM76.96 59.83C77.35 59.83 77.67 59.97 77.93 60.25C78.2 60.53 78.33 60.86 78.33 61.25C78.33 61.63 78.19 61.94 77.91 62.21C77.64 62.48 77.31 62.62 76.92 62.62C76.55 62.62 76.22 62.48 75.95 62.21C75.67 61.94 75.53 61.63 75.53 61.25C75.53 60.85 75.67 60.51 75.95 60.24C76.22 59.97 76.56 59.83 76.96 59.83ZM65.48 0C84.48 0 99.81 15.21 99.91 34.18C99.94 38.58 99.13 42.79 97.65 46.65C97.28 47.64 96.85 48.61 96.39 49.55L91.42 45.65L88.26 48.21C88 48.42 87.67 48.51 87.34 48.48L82.63 47.93C82.61 47.92 82.58 47.92 82.56 47.92C82.32 47.91 82.07 47.96 81.86 48.09C81.85 48.1 81.83 48.11 81.82 48.12L77.85 50.69C77.28 51.05 76.51 50.89 76.15 50.32L73.97 46.94L71.97 48.61L77.17 53.33C77.18 53.34 77.18 53.35 77.19 53.35C77.79 53.92 77.83 54.87 77.27 55.49C76.71 56.11 75.74 56.16 75.11 55.6C75.11 55.6 75.11 55.6 75.11 55.59L73.23 53.89L70.12 55.42C70.12 55.42 70.11 55.42 70.11 55.43C69.63 55.65 69.06 55.55 68.69 55.17L68.68 55.16L67.01 53.39C66.66 53.02 66.12 52.9 65.64 53.1L62.08 54.58C61.62 54.77 61.09 54.67 60.73 54.32L57.42 51.03C57.07 50.67 56.53 50.57 56.06 50.77L52.26 52.43C51.85 52.6 51.37 52.54 51.02 52.27L47.89 49.86C47.44 49.51 46.81 49.52 46.36 49.88L43.33 52.33C42.81 52.75 42.05 52.68 41.62 52.17C41.61 52.16 41.6 52.16 41.6 52.15L38.58 48.43L35.33 50.98C34.83 50.07 34.36 49.14 33.94 48.18C32.09 43.96 31.06 39.29 31.06 34.38C31.06 15.39 46.47 0 65.48 0ZM53.94 36.37L40.99 46.54L42.05 47.85C42.05 47.85 42.06 47.86 42.06 47.87C42.49 48.38 43.25 48.45 43.77 48.04C43.78 48.04 43.78 48.04 43.78 48.03L46.32 45.98C46.76 45.62 47.4 45.62 47.85 45.96L51.45 48.75C51.81 49.02 52.29 49.08 52.7 48.9L56.75 47.14C57.21 46.94 57.75 47.04 58.11 47.4L61.44 50.71C61.8 51.06 62.33 51.17 62.79 50.98L66.42 49.47C66.89 49.27 67.43 49.39 67.78 49.75L67.79 49.76L69.36 51.42C69.36 51.43 69.36 51.43 69.37 51.43C69.74 51.82 70.32 51.92 70.8 51.68L60.59 42.41L57.94 40.01L53.94 36.37ZM83.2 39.18L76.33 44.95L77.06 46.09C77.42 46.66 78.19 46.83 78.76 46.45L81.08 44.95C81.09 44.95 81.1 44.94 81.11 44.93C81.33 44.8 81.57 44.74 81.82 44.76L81.89 44.76L86.41 45.29C86.74 45.33 87.07 45.23 87.33 45.03L88.96 43.71L83.2 39.18ZM65.48 24.97C60.36 24.97 56.17 29.08 56.06 34.18L60.24 37.96L62.41 39.94L66.58 43.72C71.26 43.18 74.91 39.2 74.91 34.38C74.91 29.19 70.68 24.97 65.48 24.97ZM53.46 32.85L47.42 32.85C46.57 32.85 45.89 33.53 45.89 34.38C45.89 35.22 46.57 35.9 47.42 35.9L49.59 35.9L53.46 32.87L53.46 32.85ZM83.55 32.85L79.04 32.85C78.2 32.85 77.51 33.53 77.51 34.38C77.51 35.22 78.2 35.9 79.04 35.9L83.55 35.9C83.97 35.9 84.36 35.73 84.63 35.46C84.91 35.18 85.08 34.8 85.08 34.38C85.08 33.53 84.4 32.85 83.55 32.85ZM79.34 20.54C78.74 19.94 77.77 19.94 77.18 20.54L73.99 23.72C73.39 24.32 73.39 25.29 73.99 25.88C74.59 26.48 75.55 26.48 76.15 25.89L79.34 22.7C79.94 22.1 79.94 21.14 79.34 20.54L79.34 20.54ZM53.79 20.54C53.19 19.94 52.23 19.94 51.63 20.54C51.03 21.14 51.03 22.1 51.63 22.7L54.82 25.88C55.11 26.18 55.51 26.33 55.9 26.33C56.29 26.33 56.68 26.18 56.98 25.88C57.58 25.29 57.58 24.32 56.98 23.72L53.79 20.54ZM65.48 14.81C64.64 14.81 63.95 15.49 63.95 16.33L63.95 20.84C63.95 21.26 64.13 21.64 64.4 21.92C64.68 22.19 65.06 22.37 65.48 22.37C66.33 22.37 67.01 21.68 67.01 20.84L67.01 16.33C67.01 15.49 66.33 14.81 65.48 14.81Z" fill="#FFFFFF" fill-opacity="1.000000" fill-rule="evenodd"/>
</svg>
