<svg width="128.000000" height="20.000000" viewBox="0 0 128 20" fill="none" xmlns="http://www.w3.org/2000/svg" xmlns:xlink="http://www.w3.org/1999/xlink">
	<desc>
			Created with Pixso.
	</desc>
	<defs/>
	<path id="Combined-Shape" d="M6.86 0C9.98 0 12.51 1.69 12.51 4.41C12.51 6.27 11.47 7.64 11.06 7.64C10.67 7.64 8.7 6.45 8.7 6.11C8.7 5.97 9.08 5.35 9.08 4.73C9.08 3.6 8.28 2.79 6.91 2.79C5.57 2.79 4.61 3.68 4.61 5C4.61 6.4 6.14 7.24 8.15 8.23C8.3 8.31 8.46 8.39 8.62 8.47L9.09 8.71C11.6 10.01 13.96 11.51 13.96 14.23C13.96 17.71 10.89 20 6.8 20C2.79 20 0 18.03 0 14.5C0 12.24 1.42 10.49 1.75 10.49C2.19 10.49 4.08 11.79 4.08 12.13C4.08 12.35 3.43 13.05 3.43 14.23C3.43 15.98 4.91 17.17 6.91 17.17C9 17.17 10.31 15.96 10.31 14.32C10.31 12.75 8.94 11.87 5.92 10.44C3.29 9.2 1.04 7.88 1.04 4.92C1.04 2.15 3.48 0 6.86 0ZM93.33 0C96.63 0 98.71 2.2 98.71 5.06C98.71 7.88 96.54 10.06 93.74 10.82C93.58 10.87 93.36 10.9 93.22 10.9C92.87 10.9 92.02 8.77 92.02 8.42C92.02 8.31 92.1 8.23 92.23 8.18C94.16 7.42 95.34 6.43 95.34 4.92C95.34 3.76 94.62 2.93 93.28 2.93C90.48 2.93 88.45 6.56 88.45 10.47C88.45 14.45 91.08 17.06 94.62 17.06C97.18 17.06 99.15 15.78 100.21 14.07C100.18 13.79 100.17 13.5 100.17 13.21C100.17 9.44 102.64 6.62 106.04 6.62C107.77 6.62 108.98 7.24 109.83 7.99L109.91 7.96L109.91 7.61C109.91 7.21 110.18 6.97 110.54 6.97L112.65 6.97C113.07 6.97 113.31 7.21 113.31 7.67C113.31 8.18 113.01 12.08 113.01 14.21C113.01 15.42 113.51 16.41 114.47 16.41C115.81 16.41 116.95 14.76 117.6 13.27L117.59 7.64C117.59 7.24 117.81 6.97 118.23 6.97L120.42 6.97C120.86 6.97 121.11 7.21 121.11 7.67C121.11 9.17 120.97 13.05 120.97 14.07C120.97 15.45 121.44 16.41 122.56 16.41C124.07 16.41 125.36 14.48 125.86 13.1C125.91 12.97 125.96 12.89 126.13 12.89C126.38 12.89 128 13.62 128 13.91C128 13.99 127.97 14.1 127.94 14.18C127.17 16.5 125.14 19.35 121.79 19.35C119.97 19.35 118.68 18.58 118.04 17.17C117.02 18.36 115.54 19.35 113.56 19.35C111.58 19.35 110.16 18.43 110.16 16.87L110.16 16.6L110.05 16.58C109.36 18.06 107.82 19.35 105.44 19.35C103.55 19.35 102.06 18.47 101.15 17.01C99.65 18.7 97.26 20 94.16 20C88.58 20 84.8 16.25 84.8 10.52C84.8 4.71 88.26 0 93.33 0ZM54.61 0.56C55.08 0.56 55.3 0.83 55.3 1.29C55.3 3.06 54.94 11.43 54.94 14.23C54.94 15.47 55.38 16.41 56.48 16.41C57.89 16.41 59.08 14.58 59.66 13.27L59.66 7.64C59.66 7.24 59.88 6.97 60.29 6.97L62.49 6.97C62.92 6.97 63.17 7.21 63.17 7.67C63.17 9.17 63.03 13.05 63.03 14.07C63.03 15.45 63.5 16.41 64.63 16.41C65.79 16.41 66.83 15.25 67.47 14.09C67.42 13.77 67.4 13.43 67.4 13.08C67.4 9.36 70.14 6.62 74.23 6.62C78.16 6.62 80.71 9.36 80.71 12.86C80.71 16.07 78.4 19.35 73.85 19.35C71.51 19.35 69.67 18.41 68.57 16.88C67.49 18.26 65.93 19.35 63.86 19.35C62.04 19.35 60.75 18.59 60.11 17.18C59.04 18.41 57.53 19.35 55.65 19.35C53.37 19.35 51.78 18.3 51.78 16.68L51.78 16.47L51.67 16.44C50.99 17.87 49.48 19.35 47.12 19.35C45.21 19.35 43.73 18.48 42.82 17.06C41.75 18.36 40.21 19.35 38.22 19.35C36 19.35 34.63 18.19 34.63 16.6C34.63 16.47 34.63 16.25 34.66 16.17L34.55 16.15C33.81 17.73 32.27 19.35 29.8 19.35C28.03 19.35 26.82 18.54 26.21 17.15C25.13 18.38 23.54 19.35 21.35 19.35C18.35 19.35 16.32 17.41 16.32 14.5L16.32 9.69L15.61 9.69C15.2 9.69 15.01 9.55 15.01 9.15L15.01 7.64C15.01 7.34 15.14 7.13 15.5 7.13L16.32 7.13L16.32 4.06C16.32 3.6 16.57 3.33 16.98 3.33L19.07 3.33C19.51 3.33 19.73 3.6 19.73 4.06L19.73 7.18C20.61 7.16 21.65 7.13 22.31 7.13C22.55 7.13 22.75 7.26 22.75 7.56L22.75 9.2C22.75 9.58 22.58 9.69 22.28 9.69C21.65 9.69 20.63 9.66 19.73 9.66L19.73 13.16C19.73 15.2 20.28 16.41 22.06 16.41C23.99 16.41 25.24 14.51 25.77 13.22L25.76 7.67C25.76 7.18 26.01 6.97 26.45 6.97L28.59 6.97C29.06 6.97 29.28 7.24 29.28 7.64C29.28 9.31 29.14 12.08 29.14 13.88C29.14 15.58 29.55 16.42 30.79 16.42C32.71 16.42 34.35 12.65 34.35 8.58L34.35 7.67C34.35 7.24 34.55 6.97 35.01 6.97L37.18 6.97C37.65 6.97 37.87 7.21 37.87 7.67C37.87 8.14 37.75 9.87 37.67 11.62L37.64 12.17C37.61 12.91 37.59 13.63 37.59 14.23C37.59 15.42 38.09 16.42 39.1 16.42C40.24 16.42 41.21 15.23 41.84 14.12C41.81 13.82 41.79 13.5 41.79 13.18C41.79 9.66 44.07 6.62 47.75 6.62C49.45 6.62 50.99 7.42 51.84 8.07L51.95 8.04L51.95 1.26C51.95 0.8 52.17 0.56 52.58 0.56L54.61 0.56ZM74.18 9.31C72.12 9.31 70.97 11.17 70.97 13.05C70.97 15.1 72.17 16.66 74.04 16.66C76.04 16.66 77.11 14.88 77.11 12.75C77.11 10.84 76.13 9.31 74.18 9.31ZM48.85 9.55C46.84 9.55 45.33 11.14 45.33 13.37C45.33 15.23 46.35 16.41 47.83 16.41C50.25 16.41 51.54 12.94 51.54 10.74C50.96 10.2 49.97 9.55 48.85 9.55ZM107.22 9.55C105.22 9.55 103.71 11.14 103.71 13.4C103.71 15.2 104.72 16.41 106.15 16.41C108.73 16.41 109.91 12.78 109.91 10.74C109.33 10.2 108.35 9.55 107.22 9.55ZM61.47 1.21C62.49 1.21 63.34 1.77 63.34 2.93C63.34 4.03 62.6 4.81 61.36 4.81C60.29 4.81 59.55 4.09 59.55 2.96C59.55 1.93 60.34 1.21 61.47 1.21ZM119.41 1.21C120.42 1.21 121.27 1.77 121.27 2.93C121.27 4.03 120.53 4.81 119.3 4.81C118.23 4.81 117.48 4.09 117.48 2.96C117.48 1.93 118.28 1.21 119.41 1.21Z" fill="#FFFFFF" fill-opacity="1.000000" fill-rule="evenodd"/>
</svg>
