<svg width="117.000000" height="102.000000" viewBox="0 0 117 102" fill="none" xmlns="http://www.w3.org/2000/svg" xmlns:xlink="http://www.w3.org/1999/xlink">
	<desc>
			Created with Pixso.
	</desc>
	<defs/>
	<path id="Finalizing-Icon" d="M58.5 0C90.8 0 117 22.83 117 51C117 79.16 90.8 102 58.5 102C26.19 102 0 79.16 0 51C0 22.83 26.19 0 58.5 0ZM51.1 37L44.73 44L44.73 65L57.48 65L57.48 44L51.1 37ZM71.81 39.8L62.25 39.8C61.37 39.8 60.66 40.42 60.66 41.2L60.66 63.6C60.66 64.37 61.37 65 62.25 65L71.81 65C72.69 65 73.41 64.37 73.41 63.6L73.41 59.39L70.22 59.39L70.22 56.6L73.41 56.6L73.41 53.8L68.63 53.8L68.63 51L73.41 51L73.41 48.2L70.22 48.2L70.22 45.39L73.41 45.39L73.41 41.2C73.41 40.42 72.69 39.8 71.81 39.8ZM54.29 59.39L54.29 62.2L47.92 62.2L47.92 59.39L54.29 59.39Z" fill="#403E3B" fill-opacity="1.000000" fill-rule="evenodd"/>
</svg>
