<svg width="117.000000" height="102.000000" viewBox="0 0 117 102" fill="none" xmlns="http://www.w3.org/2000/svg" xmlns:xlink="http://www.w3.org/1999/xlink">
	<desc>
			Created with Pixso.
	</desc>
	<defs/>
	<path id="Building-Icon" d="M58.5 0C90.8 0 117 22.83 117 51C117 79.16 90.8 102 58.5 102C26.19 102 0 79.16 0 51C0 22.83 26.19 0 58.5 0ZM60.92 39.1C60.74 38.99 60.5 38.97 60.3 39.03L47.19 43.12C46.65 43.28 46.29 43.72 46.29 44.21L46.29 59.67L43.58 59.67L43.58 62L73.41 62L73.41 59.67L70.7 59.67L70.7 48.88C70.7 48.38 70.32 47.94 69.77 47.78L61.21 45.33L61.21 39.58C61.21 39.39 61.1 39.21 60.92 39.1ZM58.5 42.07L58.5 59.67L49.01 59.67L49.01 45.02L58.5 42.07ZM61.21 47.78L67.98 49.72L67.98 59.67L61.21 59.67L61.21 47.78Z" fill="#403E3B" fill-opacity="1.000000" fill-rule="evenodd"/>
</svg>
