<svg width="24.000000" height="25.000000" viewBox="0 0 24 25" fill="none" xmlns="http://www.w3.org/2000/svg" xmlns:xlink="http://www.w3.org/1999/xlink">
	<desc>
			Created with Pixso.
	</desc>
	<defs>
		<clipPath id="clip2_672">
			<rect id="IMAGE" width="24.000000" height="24.000000" transform="translate(0.000000 1.000000)" fill="white" fill-opacity="0"/>
		</clipPath>
	</defs>
	<g clip-path="url(#clip2_672)">
		<path id="Path" d="M24 5.55C23.11 5.94 22.16 6.21 21.17 6.33C22.18 5.72 22.96 4.75 23.33 3.6C22.38 4.17 21.32 4.58 20.2 4.8C19.31 3.84 18.03 3.25 16.61 3.25C13.89 3.25 11.69 5.45 11.69 8.17C11.69 8.55 11.73 8.93 11.81 9.29C7.72 9.08 4.09 7.13 1.67 4.14C1.24 4.87 1 5.72 1 6.62C1 8.33 1.87 9.84 3.19 10.72C2.38 10.69 1.62 10.47 0.96 10.1L0.96 10.16C0.96 12.55 2.66 14.54 4.91 14.99C4.5 15.1 4.06 15.16 3.61 15.16C3.29 15.16 2.98 15.13 2.69 15.08C3.31 17.03 5.13 18.46 7.28 18.5C5.6 19.82 3.48 20.6 1.17 20.6C0.77 20.6 0.38 20.58 0 20.53C2.18 21.93 4.76 22.75 7.54 22.75C16.6 22.75 21.55 15.24 21.55 8.74C21.55 8.52 21.55 8.31 21.54 8.1C22.5 7.41 23.34 6.54 24 5.55Z" fill="#1B1A1A" fill-opacity="1.000000" fill-rule="nonzero"/>
	</g>
</svg>
